<?xml version="1.0" encoding="UTF-8"?>
<svg width="478px" height="290px" viewBox="0 0 478 290" version="1.1" xmlns="http://www.w3.org/2000/svg" xmlns:xlink="http://www.w3.org/1999/xlink">
    <title>Group 2</title>
    <defs>
        <polygon id="path-1" points="-5.68434189e-14 0 3 0 3 3 -5.68434189e-14 3"></polygon>
        <polygon id="path-3" points="0 0 3 0 3 3 0 3"></polygon>
    </defs>
    <g id="Page-1" stroke="none" stroke-width="1" fill="none" fill-rule="evenodd">
        <g id="Group-2" transform="translate(-0, 0)">
            <rect id="Rectangle" stroke="#FFD200" fill="#000000" x="0.5" y="0.5" width="477" height="289" rx="13"></rect>
            <rect id="Rectangle" stroke="#FFD200" stroke-width="2" fill="#FFFFFF" x="28.2109705" y="31.7575758" width="425.578059" height="195.727273" rx="14"></rect>
            <rect id="Rectangle-Copy" stroke="#979797" fill="#000000" x="81.0654008" y="100.310606" width="320.691983" height="90" rx="14"></rect>
            <line x1="68.5" y1="60.5" x2="413.5" y2="60.5" id="Line" stroke="#000000" stroke-width="2" stroke-linecap="square"></line>
            <line x1="68.5" y1="82.5" x2="413.5" y2="82.5" id="Line-Copy" stroke="#000000" stroke-width="2" stroke-linecap="square"></line>
            <text id="A" font-family="Helvetica-Bold, Helvetica" font-size="39" font-weight="bold" fill="#000000">
                <tspan x="33" y="84">A</tspan>
            </text>
            <circle id="Oval" fill="#FFFFFF" cx="125" cy="266" r="11"></circle>
            <circle id="Oval-Copy" fill="#FFFFFF" cx="367" cy="266" r="11"></circle>
            <rect id="Rectangle" fill="#FFFFFF" x="166" y="248" width="17" height="18" rx="5"></rect>
            <rect id="Rectangle-Copy-2" fill="#FFFFFF" x="309" y="248" width="17" height="18" rx="5"></rect>
            <circle id="Oval" stroke="#FFD200" fill="#FFFFFF" cx="136" cy="145" r="35.5"></circle>
            <circle id="Oval-Copy-2" stroke="#FFD200" fill="#FFFFFF" cx="344" cy="145" r="35.5"></circle>
            <rect id="Rectangle" fill="#FFFFFF" x="182" y="112" width="118" height="66"></rect>
            <path d="M185.000672,114.612961 L245.5,114.612961 C246.500735,117.026039 247.212954,119.036978 247.636658,120.645777 C247.919808,121.720896 248.223702,123.184423 248.548339,125.036357 C248.655771,125.649213 248.822029,126.664201 249.047114,128.081321 L249.728913,135.972517 L250.105215,145.310606 C249.984887,153.101904 249.632187,158.687396 249.047114,162.067081 C248.462041,165.446767 247.541812,169.628727 246.286426,174.612961 L185.000672,174.612961 L185.000672,114.612961 Z" id="Path" fill="#262626"></path>
            <polyline id="Path-2" fill="#262626" points="297.113896 121.08767 297.113896 169.128854 295.404941 165.829715 293.290702 160.026613 292.284184 156.968766 291.471074 153.455083 291.121171 151.334399 290.80692 148.247235 290.676044 143.178727 290.80692 140.242485 291.121171 137.880337 291.471074 135.628398 292.284184 132.733984 293.290702 129.382117 294.219571 126.846198 295.020179 124.565761 295.759395 122.790677 296.286964 121.973664 297.113896 121.08767 297.113896 120.742349"></polyline>
            <g id="tapey" transform="translate(188, 200)">
                <g id="Clipped" transform="translate(99, 0)">
                    <mask id="mask-2" fill="white">
                        <use xlink:href="#path-1"></use>
                    </mask>
                    <g id="Path"></g>
                    <polygon id="Path" fill="#000000" fill-rule="nonzero" mask="url(#mask-2)" points="0.989078148 3 0.989078148 0.506944444 -5.68434189e-14 0.506944444 -5.68434189e-14 0 2.64778155 0 2.64778155 0.506944444 1.66279871 0.506944444 1.66279871 3"></polygon>
                </g>
                <g id="Clipped" transform="translate(102, 0)">
                    <mask id="mask-4" fill="white">
                        <use xlink:href="#path-3"></use>
                    </mask>
                    <g id="Path"></g>
                    <polygon id="Path" fill="#000000" fill-rule="nonzero" mask="url(#mask-4)" points="0.0672059712 3 0.0672059712 0 0.985687577 0 1.53640329 2.04687511 2.08151839 0 3 0 3 3 2.4306162 3 2.4306162 0.638888889 1.82762917 3 1.23771009 3 0.636589774 0.638888889 0.636589774 3"></polygon>
                </g>
                <g id="Group" fill="#000000" fill-rule="nonzero">
                    <g id="Path">
                        <path d="M9.37363438,4.09556314 C9.28750898,3.23354486 8.89493796,2.54705047 8.19592134,2.03607996 C7.50091029,1.5270601 6.62764008,1.27157484 5.57611071,1.27157484 C4.83302973,1.27157484 4.18208303,1.396392 3.6212673,1.64602633 C3.06045157,1.89176037 2.61981063,2.23110678 2.2993445,2.66796685 C1.97887837,3.10482691 1.8186453,3.60214542 1.8186453,4.15797172 C1.8186453,4.56947843 1.90877627,4.92832777 2.09104151,5.23451975 C2.27130397,5.54266237 2.51766193,5.80789884 2.82811362,6.03022916 C3.13656253,6.24865919 3.47906032,6.43588493 3.85360524,6.59190639 C4.23215573,6.74792784 4.61070674,6.87859593 4.99126001,6.98196002 L6.67370721,7.45002438 C7.18044415,7.59044369 7.68718161,7.76791821 8.19592134,7.98049732 C8.70866715,8.18917614 9.17534583,8.45441261 9.59796067,8.77620673 C10.0185722,9.09995149 10.3590677,9.49195527 10.6154406,9.9541687 C10.8718135,10.4124818 11,10.966358 11,11.6157972 C11,12.4427109 10.7776765,13.1877136 10.3350328,13.8469039 C9.89639463,14.508045 9.26347402,15.032667 8.43627094,15.4227206 C7.61307343,15.8069233 6.62764008,16 5.47997087,16 C4.39439159,16 3.45302258,15.8244761 2.65185725,15.4773281 C1.85069192,15.1243297 1.22177687,14.6387131 0.769118718,14.0185275 C0.314457264,13.3944417 0.0580843583,12.6747929 0,11.8576304 L1.49016752,11.8576304 C1.54224301,12.4661141 1.75054599,12.9848857 2.11507647,13.4100439 C2.47760366,13.8313018 2.9502912,14.1550466 3.53313911,14.3773769 C4.11398423,14.5958069 4.76292764,14.7050219 5.47997087,14.7050219 C6.26911846,14.7050219 6.97414395,14.5763045 7.59504734,14.3149683 C8.21394743,14.0555828 8.7006555,13.6908825 9.05316824,13.2228181 C9.40968656,12.7547538 9.58994902,12.212579 9.58994902,11.592394 C9.58994902,11.0677719 9.44774204,10.6289617 9.16533139,10.2740127 C8.88692631,9.91516333 8.49635808,9.61677243 7.99563001,9.37688932 C7.4989075,9.13310593 6.92206846,8.91662604 6.26511289,8.72940029 L4.3583394,8.18332521 C3.10852149,7.82057558 2.13510535,7.31740614 1.4420976,6.67771819 C0.753095412,6.03412944 0.408594319,5.21501731 0.408594319,4.2203803 C0.408594319,3.38371539 0.636926695,2.65041456 1.0975965,2.02047782 C1.55626353,1.38664079 2.1791697,0.893223068 2.96431173,0.538274013 C3.75345932,0.179424671 4.63874727,0 5.61616897,0 C6.60961398,0 7.48488698,0.177474528 8.24399126,0.53047294 C9.00710111,0.885421496 9.61398398,1.37103864 10.0626366,1.98927353 C10.5112891,2.60945905 10.7516387,3.31155559 10.7836854,4.09556314 L9.37363438,4.09556314 Z"></path>
                    </g>
                </g>
                <g id="Group" transform="translate(13, 4)" fill="#000000" fill-rule="nonzero">
                    <g id="Shape">
                        <path d="M4.99619193,12 C4.01561298,12 3.14927671,11.7472456 2.39908606,11.2378483 C1.6469915,10.7303955 1.05864433,10.0285161 0.632140137,9.13026572 C0.209444265,8.22812703 0,7.18988958 0,6.01166559 C0,4.82566404 0.209444265,3.77965003 0.632140137,2.87751134 C1.05864433,1.97148437 1.6469915,1.26571626 2.39908606,0.762151653 C3.14927671,0.254698763 4.01561298,0 4.99619193,0 C5.97486647,0 6.84120323,0.254698763 7.59329779,0.762151653 C8.34348844,1.27154918 8.93373953,1.97537265 9.36024372,2.87751134 C9.78674791,3.77965003 10,4.82566404 10,6.01166559 C10,7.18988958 9.78674791,8.22812703 9.36024372,9.13026572 C8.93754784,10.0285161 8.34920018,10.7303955 7.59329779,11.2378483 C6.84120323,11.7472456 5.97486647,12 4.99619193,12 Z M4.99619193,10.7712249 C5.7825589,10.7712249 6.45087586,10.557356 6.99923839,10.1257291 C7.54760091,9.69021387 7.96268113,9.11276746 8.24828637,8.39144524 C8.53198769,7.67206715 8.67479056,6.87880727 8.67479056,6.01166559 C8.67479056,5.14646804 8.53198769,4.35126402 8.24828637,3.62410888 C7.96268113,2.89889837 7.54760091,2.31756319 6.99923839,1.88204796 C6.45087586,1.44264445 5.7825589,1.22099806 4.99619193,1.22099806 C4.21363278,1.22099806 3.54531631,1.44264445 2.99314547,1.88204796 C2.44478294,2.31756319 2.02779881,2.89889837 1.74409749,3.62410888 C1.45849225,4.35126402 1.3175933,5.14646804 1.3175933,6.01166559 C1.3175933,6.87880727 1.45849225,7.67206715 1.74409749,8.39144524 C2.02779881,9.11276746 2.44478294,9.69021387 2.99314547,10.1257291 C3.541508,10.557356 4.20792055,10.7712249 4.99619193,10.7712249 Z"></path>
                    </g>
                </g>
                <g id="Group" transform="translate(26, 4)" fill="#000000" fill-rule="nonzero">
                    <g id="Path">
                        <path d="M1.37909655,4.59827929 L1.37909655,12 L0,12 L0,0.150893448 L1.33923826,0.150893448 L1.33923826,2.00926539 L1.46678477,2.00926539 C1.74180665,1.40569159 2.17626218,0.921244209 2.76616475,0.55592323 C3.3600534,0.186631116 4.09344578,0 4.9663419,0 C5.76350753,0 6.46501329,0.166776969 7.07085917,0.500330907 C7.68069113,0.829914218 8.15500443,1.31634692 8.48981399,1.96161482 C8.82860964,2.60291211 9,3.3911317 9,4.32825943 L9,12 L7.62090345,12 L7.62090345,4.40767704 C7.62090345,3.43878226 7.34588157,2.67240264 6.79982285,2.10456651 C6.25775022,1.53871621 5.52834392,1.25479815 4.61558902,1.25479815 C3.99379982,1.25479815 3.43777667,1.38980807 2.94951284,1.65982793 C2.46523459,1.92587716 2.08259509,2.30906697 1.80159433,2.81138319 C1.51860028,3.30972878 1.37909655,3.90536082 1.37909655,4.59827929 Z"></path>
                    </g>
                </g>
                <g id="Group" transform="translate(38, 4)" fill="#000000" fill-rule="nonzero">
                    <g id="Shape">
                        <path d="M5.1149881,17 C4.31007163,17 3.60428206,16.8908704 2.99762094,16.6766524 C2.39492466,16.4664765 1.88342611,16.1774844 1.46708961,15.8116976 C1.04877069,15.4438894 0.725614845,15.0316218 0.499603489,14.574893 L1.61776368,13.8231098 C1.7862806,14.1242272 2.01427439,14.4213029 2.29976209,14.7123157 C2.5852498,15.0073702 2.95796987,15.253923 3.41792228,15.4479315 C3.8778747,15.6419401 4.44290233,15.7389444 5.1149881,15.7389444 C6.16574173,15.7389444 7.0122917,15.4721826 7.65265662,14.9386591 C8.29698639,14.4051355 8.62014274,13.5745362 8.62014274,12.4488825 L8.62014274,9.73276272 L8.50118953,9.73276272 C8.34258525,10.1005709 8.11260904,10.4663577 7.8112609,10.8321446 C7.51387813,11.1938898 7.12529713,11.4950071 6.64551943,11.7375178 C6.16375879,11.9759869 5.56899274,12.0932002 4.86122125,12.0932002 C3.9195082,12.0932002 3.08088793,11.8567524 2.34734338,11.3818355 C1.61776368,10.9089399 1.04282341,10.2258678 0.626486915,9.33666191 C0.208167994,8.44745602 0,7.38849263 0,6.15977175 C0,4.94317667 0.202220714,3.8700667 0.610626487,2.94246315 C1.01704983,2.01688091 1.58802525,1.29339039 2.32355274,0.776034237 C3.0570978,0.258678079 3.91157799,0 4.8850119,0 C5.60864381,0 6.20935765,0.129339039 6.6851705,0.388017118 C7.16494871,0.646695197 7.55154626,0.968022003 7.84298176,1.34997622 C8.13243483,1.73395124 8.3604281,2.10580098 8.52498017,2.46552544 L8.65979381,2.46552544 L8.65979381,0.161673799 L10,0.161673799 L10,12.5378031 C10,13.5563481 9.78588422,14.3930097 9.35765266,15.0518307 C8.93338595,15.7146933 8.35448082,16.2037563 7.62093577,16.5230623 C6.88540828,16.840347 6.05075337,17 5.1149881,17 Z M5.02775575,10.8159772 C5.78310852,10.8159772 6.43140365,10.6300523 6.97065821,10.2582026 C7.50991277,9.88231073 7.9222839,9.34272481 8.20777161,8.64146457 C8.49722468,7.94222513 8.64393339,7.10556348 8.64393339,6.13552068 C8.64393339,5.19377054 8.50118953,4.35710889 8.21570182,3.6295768 C7.93417897,2.89800259 7.5257732,2.32001902 6.98651864,1.89966714 C6.45122944,1.47931526 5.79896895,1.26913932 5.02775575,1.26913932 C4.23473434,1.26913932 3.5646315,1.48739895 3.02141158,1.92391821 C2.47620923,2.35639588 2.0638381,2.94044235 1.78429818,3.67807893 C1.50872311,4.41167393 1.37192704,5.23014741 1.37192704,6.13552068 C1.37192704,7.05706134 1.51070554,7.87149323 1.79222839,8.57679505 C2.0777161,9.27805529 2.49206966,9.82774621 3.03727201,10.2258678 C3.58049193,10.6199478 4.24464698,10.8159772 5.02775575,10.8159772 Z"></path>
                    </g>
                </g>
                <g id="Group" transform="translate(50, 4)" fill="#000000" fill-rule="nonzero">
                    <g id="Path">
                        <polygon points="3.06719368 12 0 0 3.77075099 0 5.35968379 7.68900804 5.45454545 7.68900804 7.16205534 0 10.8379447 0 12.5928854 7.63270777 12.687747 7.63270777 14.229249 0 18 0 14.9249012 12 10.9090909 12 9.06719368 5.01072386 8.93280632 5.01072386 7.09090909 12"></polygon>
                    </g>
                </g>
                <g id="Group" transform="translate(69, 4)" fill="#000000" fill-rule="nonzero">
                    <g id="Shape">
                        <path d="M3.90014472,12 C3.14001473,12 2.46942824,11.875 1.88639653,11.625 C1.30137456,11.375 0.839724781,10.998047 0.501447178,10.4921875 C0.167149059,9.982422 0,9.341797 0,8.5703125 C0,7.9257815 0.113422449,7.3808595 0.342257598,6.9375 C0.575072232,6.4902345 0.893451392,6.1289065 1.29739508,5.8515625 C1.70531825,5.5703125 2.17492751,5.359375 2.70622287,5.21875 C3.2414977,5.0742185 3.80861096,4.9746095 4.40955137,4.921875 C5.08212761,4.859375 5.62735166,4.794922 6.04124457,4.7265625 C6.45513748,4.6601565 6.7536182,4.5625 6.9406657,4.4375 C7.1316932,4.3085935 7.22720695,4.123047 7.22720695,3.8828125 L7.22720695,3.84375 C7.22720695,3.453125 7.08791632,3.154297 6.81331404,2.9453125 C6.54269175,2.732422 6.17257572,2.625 5.70694645,2.625 C5.20748902,2.625 4.80752533,2.732422 4.50506512,2.9453125 C4.20260492,3.154297 4.00759743,3.4453125 3.92402315,3.8203125 L0.437771346,3.703125 C0.537264579,2.9960935 0.803907381,2.3632815 1.23371925,1.8046875 C1.6675106,1.2421875 2.26248178,0.8027345 3.01664255,0.484375 C3.76881306,0.1621095 4.67619367,0 5.73878437,0 C6.49692462,0 7.19536903,0.0898435 7.83212735,0.265625 C8.47286567,0.4375 9.0300292,0.6914065 9.50361795,1.0234375 C9.98118669,1.3515625 10.3493125,1.7578125 10.6099855,2.2421875 C10.8686683,2.7226565 11,3.2695315 11,3.8828125 L11,11.8046875 L7.44211288,11.8046875 L7.44211288,10.1796875 L7.34659913,10.1796875 C7.13368294,10.576172 6.86306065,10.9121095 6.53473227,11.1875 C6.21038337,11.4589845 5.82832838,11.6621095 5.38856729,11.796875 C4.94681595,11.9316405 4.45133851,12 3.90014472,12 Z M5.07018813,9.5703125 C5.47214157,9.5703125 5.8382776,9.4902345 6.16859624,9.328125 C6.49692462,9.1679685 6.75958743,8.9453125 6.95658466,8.6640625 C7.15159215,8.3789065 7.25108538,8.044922 7.25108538,7.6640625 L7.25108538,6.5546875 C7.13965268,6.6132815 7.00633128,6.6640625 6.85311143,6.7109375 C6.70387107,6.7539065 6.53871176,6.794922 6.35962373,6.8359375 C6.17854546,6.8789065 5.9934877,6.9140625 5.8024602,6.9453125 C5.61143271,6.9726565 5.42836469,6.998047 5.25325615,7.0234375 C4.89706934,7.0820315 4.59460913,7.1679685 4.34587554,7.28125 C4.09515221,7.3964845 3.90412471,7.546875 3.77279305,7.734375 C3.63947165,7.9179685 3.57380608,8.1367185 3.57380608,8.390625 C3.57380608,8.7773435 3.71309722,9.0703125 3.99565847,9.2734375 C4.27622997,9.4726565 4.63440653,9.5703125 5.07018813,9.5703125 Z"></path>
                    </g>
                </g>
                <g id="Group" transform="translate(82, 4)" fill="#000000" fill-rule="nonzero">
                    <g id="Path">
                        <path d="M0,12 L0,0.158730159 L3.85370951,0.158730159 L3.85370951,2.31746032 L3.97910136,2.31746032 C4.20689642,1.53571454 4.57680224,0.952380952 5.09090909,0.571428571 C5.6091954,0.19047619 6.20689682,0 6.88819227,0 C7.07210031,0 7.26018836,0.0138890159 7.45663532,0.0396825397 C7.65099255,0.0615080635 7.83281087,0.0932540952 8,0.134920635 L8,3.41269841 C7.80982223,3.34920635 7.56112879,3.3015873 7.25600836,3.26984127 C6.94879819,3.23412724 6.67920585,3.21428571 6.44514107,3.21428571 C5.97074177,3.21428571 5.54440948,3.31547632 5.1661442,3.51587302 C4.79205838,3.71230171 4.49738767,3.98809498 4.2800418,4.34126984 C4.06687592,4.69047619 3.96238245,5.1011906 3.96238245,5.57142857 L3.96238245,12 L0,12 Z"></path>
                    </g>
                </g>
                <g id="Group" transform="translate(91, 4)" fill="#000000" fill-rule="nonzero">
                    <g id="Path">
                        <path d="M10.7105263,3.7037037 L7.29943101,3.78947368 C7.26226872,3.55165667 7.16642959,3.33723197 7.00995733,3.15009747 C6.85348506,2.95906408 6.65007112,2.80701754 6.3997155,2.69785575 C6.14935989,2.58869396 5.8598862,2.53411306 5.53129445,2.53411306 C5.09708418,2.53411306 4.72937386,2.61988304 4.42816501,2.791423 C4.12499987,2.96296296 3.97635123,3.1949319 3.98221906,3.48538012 C3.97635123,3.71539986 4.06827881,3.91228083 4.25604552,4.07797271 C4.44772379,4.24561428 4.79196277,4.38011708 5.28876245,4.4834308 L7.5341394,4.90448343 C8.6959462,5.1286551 9.56241097,5.49707602 10.1315789,6.01169591 C10.7046585,6.52631579 10.9941322,7.20857725 11,8.0545809 C10.9941322,8.85575061 10.757468,9.55165692 10.2880512,10.1442495 C9.81863442,10.7329437 9.17709815,11.1890838 8.36344239,11.5165692 C7.55369869,11.8382065 6.62855606,12 5.58605974,12 C3.92158593,12 2.60917521,11.6608185 1.65078236,10.9785575 C0.69043373,10.2923977 0.140825036,9.37621857 0,8.22612086 L3.67709815,8.13255361 C3.75533428,8.55360624 3.96265978,8.87719323 4.3029872,9.0994152 C4.64135834,9.32358687 5.07361284,9.43469786 5.60170697,9.43469786 C6.08090315,9.43469786 6.47012802,9.34697868 6.76742532,9.16959064 C7.06472262,8.9941518 7.21532704,8.76023367 7.22119488,8.46783626 C7.21532704,8.20272904 7.09797285,7.99220273 6.86913229,7.83625731 C6.64420329,7.6764135 6.29018492,7.54775828 5.80512091,7.45419103 L3.76315789,7.07212476 C2.59352799,6.85964925 1.72315066,6.46783601 1.15007112,5.89473684 C0.575035812,5.32358687 0.291429462,4.59259259 0.297297297,3.7037037 C0.291429462,2.92397661 0.500711238,2.25925938 0.923186344,1.70760234 C1.34566145,1.15204691 1.94221182,0.729044585 2.71479374,0.436647173 C3.49128721,0.146198955 4.40664995,0 5.46088193,0 C7.04125178,0 8.28716204,0.331384265 9.20056899,0.990253411 C10.1120197,1.64522417 10.616643,2.5497076 10.7105263,3.7037037 Z"></path>
                    </g>
                </g>
            </g>
            <g id="Screw" transform="translate(455, 5)">
                <circle id="Oval" stroke="#303030" fill="#1F1E1E" cx="9.5" cy="9.5" r="9"></circle>
                <polyline id="Line-3" stroke="#000000" stroke-width="3" stroke-linecap="square" points="5.57005928 5.5 10.3864389 10.2806862 13.5700593 13.5"></polyline>
                <polyline id="Line-3-Copy" stroke="#000000" stroke-width="3" stroke-linecap="square" points="6.0769635 12.9845639 10.2595795 8.77084258 13.0769635 5.98456387"></polyline>
            </g>
            <g id="Screw-Copy" transform="translate(8, 5)">
                <circle id="Oval" stroke="#303030" fill="#1F1E1E" cx="9.5" cy="9.5" r="9"></circle>
                <polyline id="Line-3" stroke="#000000" stroke-width="3" stroke-linecap="square" points="5.57005928 5.5 10.3864389 10.2806862 13.5700593 13.5"></polyline>
                <polyline id="Line-3-Copy" stroke="#000000" stroke-width="3" stroke-linecap="square" points="6.0769635 12.9845639 10.2595795 8.77084258 13.0769635 5.98456387"></polyline>
            </g>
            <g id="Screw-Copy-2" transform="translate(8, 258)">
                <circle id="Oval" stroke="#303030" fill="#1F1E1E" cx="9.5" cy="9.5" r="9"></circle>
                <polyline id="Line-3" stroke="#000000" stroke-width="3" stroke-linecap="square" points="5.57005928 5.5 10.3864389 10.2806862 13.5700593 13.5"></polyline>
                <polyline id="Line-3-Copy" stroke="#000000" stroke-width="3" stroke-linecap="square" points="6.0769635 12.9845639 10.2595795 8.77084258 13.0769635 5.98456387"></polyline>
            </g>
            <g id="Screw-Copy-3" transform="translate(455, 258)">
                <circle id="Oval" stroke="#303030" fill="#1F1E1E" cx="9.5" cy="9.5" r="9"></circle>
                <polyline id="Line-3" stroke="#000000" stroke-width="3" stroke-linecap="square" points="5.57005928 5.5 10.3864389 10.2806862 13.5700593 13.5"></polyline>
                <polyline id="Line-3-Copy" stroke="#000000" stroke-width="3" stroke-linecap="square" points="6.0769635 12.9845639 10.2595795 8.77084258 13.0769635 5.98456387"></polyline>
            </g>
            <g id="Screw-Copy-4" transform="translate(239, 238)">
                <circle id="Oval" stroke="#303030" fill="#1F1E1E" cx="9.5" cy="9.5" r="9"></circle>
                <polyline id="Line-3" stroke="#000000" stroke-width="3" stroke-linecap="square" points="5.57005928 5.5 10.3864389 10.2806862 13.5700593 13.5"></polyline>
                <polyline id="Line-3-Copy" stroke="#000000" stroke-width="3" stroke-linecap="square" points="6.0769635 12.9845639 10.2595795 8.77084258 13.0769635 5.98456387"></polyline>
            </g>
            <line x1="103.5" y1="234.5" x2="387.5" y2="234.5" id="Line-4" stroke="#211E1E" stroke-width="3" stroke-linecap="square"></line>
            <line x1="387.5" y1="235.5" x2="402.5" y2="277.5" id="Line-4-Copy" stroke="#211E1E" stroke-width="3" stroke-linecap="square"></line>
            <line x1="88" y1="235" x2="103" y2="277" id="Line-4-Copy" stroke="#211E1E" stroke-width="3" stroke-linecap="square" transform="translate(95.5, 256) scale(-1, 1) translate(-95.5, -256)"></line>
        </g>
    </g>
</svg>